<?xml version="1.0" ?><svg enable-background="new 0 0 512 512" id="Layer_1" version="1.1" viewBox="0 0 512 512" xml:space="preserve" xmlns="http://www.w3.org/2000/svg" xmlns:xlink="http://www.w3.org/1999/xlink"><g><g><linearGradient gradientUnits="userSpaceOnUse" id="SVGID_1_" x1="-0.0000027" x2="512" y1="256" y2="256"><stop offset="0" style="stop-color:#0a98ff"/><stop offset="1" style="stop-color:#405d94"/></linearGradient><circle cx="256" cy="256" fill="url(#SVGID_1_)" r="256"/><linearGradient gradientUnits="userSpaceOnUse" id="SVGID_2_" x1="42.6666641" x2="469.3333435" y1="256.0005188" y2="256.0005188"><stop offset="0" style="stop-color:#405d94"/><stop offset="1" style="stop-color:#0a98ff"/></linearGradient><path d="M256,469.3338623c-117.6315155,0-213.3333435-95.7018738-213.3333435-213.3333435    c0-117.6309204,95.7018204-213.333313,213.3333435-213.333313c117.6356812,0,213.3333435,95.7024002,213.3333435,213.333313    C469.3333435,373.6319885,373.6356812,469.3338623,256,469.3338623z" fill="url(#SVGID_2_)"/></g><path d="M329.1279602,204.8293304c-1.4671936-0.1103973-2.9344177-0.1663971-4.0405273-0.1498718   c-0.445343-0.0517273-47.0298767-3.461853-65.6810913,57.9279938   c-16.3034515,53.6672058-54.0703888,51.2789612-56.0671844,51.1338806c-0.7456055,0-1.4954681-0.0165405-2.2458191-0.0517273   c-26.6293335-1.1813354-47.4933319-23.0064087-47.4933319-49.6874695c0-27.4266663,22.3119507-49.741333,49.739151-49.741333   c17.0016022,0,32.6528015,8.5498657,41.8682709,22.8725281l8.071991-5.1936035   c-10.9877319-17.0815887-29.6575928-27.2789307-49.9402618-27.2789307C170.620224,204.6607971,144,231.2810669,144,264.0021362   c0,31.8303833,24.8900909,57.869873,56.6623535,59.2778625c0.8858643,0.037323,1.7717285,0.0586548,2.249649,0.0421448   c0.0474243,0.0047913,0.6095581,0.0474548,1.5940857,0.0474548c8.3765259,0,47.3952026-3.0378723,64.0874786-57.9733276   c16.3029175-53.6666718,54.0794678-51.2762756,56.0671997-51.1354675c1.2607727,0,2.517334,0.049057,3.7546387,0.1402588   c25.7861328,1.9221344,45.9845886,23.7071991,45.9845886,49.6010742c0,27.4266663-22.312561,49.7391968-49.7392273,49.7391968   c-17.0016174,0-32.6485596-8.5498657-41.8640137-22.8725281l-8.071991,5.1936035   c10.9872437,17.0810547,29.6533203,27.2789307,49.9360046,27.2789307C357.3796997,323.3413391,384,296.72052,384,264.0021362   C384,233.1114655,359.8964844,207.118927,329.1279602,204.8293304z" opacity="0.3"/><path d="M321.1279602,196.8293304c-1.4671936-0.1103973-2.9344177-0.1663971-4.0405273-0.1498718   c-0.445343-0.0517273-47.0298767-3.461853-65.681076,57.928009   c-16.3034668,53.6671906-54.0704041,51.2789459-56.0671997,51.1338654c-0.7456055,0-1.4954681-0.0165405-2.2458191-0.0517273   c-26.6293335-1.1813354-47.4933319-23.0064087-47.4933319-49.6874695c0-27.4266663,22.3119507-49.741333,49.739151-49.741333   c17.0016022,0,32.6528015,8.5498657,41.8682709,22.8725281l8.071991-5.1936035   c-10.9877319-17.0815887-29.6575928-27.2789307-49.9402618-27.2789307C162.620224,196.6607971,136,223.2810669,136,256.0021362   c0,31.8303833,24.8900909,57.869873,56.6623535,59.2778625c0.8858643,0.037323,1.7717285,0.0586548,2.249649,0.0421448   c0.0474243,0.0047913,0.6095581,0.0474548,1.5940857,0.0474548c8.3765259,0,47.3952026-3.0378723,64.0874786-57.9733276   c16.3029175-53.6666718,54.0794678-51.2762756,56.0671997-51.1354675c1.2607727,0,2.517334,0.049057,3.7546387,0.1402588   c25.7861328,1.9221344,45.9845886,23.7071991,45.9845886,49.6010742c0,27.4266663-22.312561,49.7391968-49.7392273,49.7391968   c-17.0016174,0-32.6485596-8.5498657-41.8640137-22.8725281l-8.071991,5.1936035   c10.9872437,17.0810547,29.6533203,27.2789307,49.9360046,27.2789307C349.3796997,315.3413391,376,288.72052,376,256.0021362   C376,225.1114655,351.8964844,199.118927,321.1279602,196.8293304z" fill="#FFFFFF"/></g></svg>